<svg width="73" height="73" viewBox="0 0 73 73" fill="none" xmlns="http://www.w3.org/2000/svg">
<g clip-path="url(#clip0_4_257)">
<path opacity="0.2" d="M15.5299 57.4701C12.9053 54.8456 14.6461 49.3354 13.3102 46.1067C11.9253 42.7597 6.84375 40.0659 6.84375 36.4999C6.84375 32.934 11.9254 30.2402 13.3102 26.8933C14.6461 23.6646 12.9053 18.1544 15.5299 15.5299C18.1544 12.9053 23.6646 14.6461 26.8933 13.3102C30.2403 11.9253 32.9341 6.84375 36.5001 6.84375C40.066 6.84375 42.7598 11.9254 46.1067 13.3102C49.3354 14.6461 54.8456 12.9053 57.4701 15.5299C60.0947 18.1544 58.3539 23.6646 59.6898 26.8933C61.0747 30.2403 66.1562 32.9341 66.1562 36.5001C66.1562 40.066 61.0746 42.7598 59.6898 46.1067C58.3539 49.3354 60.0947 54.8456 57.4701 57.4701C54.8456 60.0947 49.3354 58.3539 46.1067 59.6898C42.7597 61.0747 40.0659 66.1562 36.4999 66.1562C32.934 66.1562 30.2402 61.0746 26.8933 59.6898C23.6646 58.3539 18.1544 60.0947 15.5299 57.4701Z" fill="#297BFF"/>
<path d="M15.5299 57.4701C12.9053 54.8456 14.6461 49.3354 13.3102 46.1067C11.9253 42.7597 6.84375 40.0659 6.84375 36.4999C6.84375 32.934 11.9254 30.2403 13.3102 26.8933C14.6461 23.6646 12.9053 18.1544 15.5299 15.5299C18.1544 12.9053 23.6646 14.6461 26.8933 13.3102C30.2403 11.9253 32.9341 6.84375 36.5001 6.84375C40.066 6.84375 42.7597 11.9254 46.1067 13.3102C49.3354 14.6461 54.8456 12.9053 57.4701 15.5299C60.0947 18.1544 58.3539 23.6646 59.6898 26.8933C61.0747 30.2403 66.1562 32.9341 66.1562 36.5001C66.1562 40.066 61.0746 42.7597 59.6898 46.1067C58.3539 49.3354 60.0947 54.8456 57.4701 57.4701C54.8456 60.0947 49.3354 58.3539 46.1067 59.6898C42.7597 61.0747 40.0659 66.1562 36.4999 66.1562C32.934 66.1562 30.2403 61.0746 26.8933 59.6898C23.6646 58.3539 18.1544 60.0947 15.5299 57.4701Z" stroke="#297BFF" stroke-width="2" stroke-linecap="round" stroke-linejoin="round"/>
<path d="M49.0469 29.6562L32.3176 45.625L23.9531 37.6406" stroke="#297BFF" stroke-width="2" stroke-linecap="round" stroke-linejoin="round"/>
</g>
<defs>
<clipPath id="clip0_4_257">
<rect width="73" height="73" fill="white"/>
</clipPath>
</defs>
</svg>
