<svg width="24" height="24" viewBox="0 0 24 24" fill="none" xmlns="http://www.w3.org/2000/svg">
<path d="M12 22C17.523 22 22 17.523 22 12C22 6.477 17.523 2 12 2C6.477 2 2 6.477 2 12C2 13.379 2.28 14.693 2.784 15.888C3.063 16.548 3.202 16.878 3.22 17.128C3.237 17.378 3.163 17.652 3.016 18.201L2 22L5.799 20.984C6.348 20.837 6.622 20.764 6.872 20.78C7.122 20.798 7.452 20.937 8.112 21.216C9.34266 21.7343 10.6647 22.0009 12 22Z" stroke="white" stroke-width="1.5" stroke-linejoin="round"/>
<path d="M12.882 12C14.052 12 15 13.007 15 14.25C15 15.493 14.052 16.5 12.882 16.5H10.412C9.746 16.5 9.414 16.5 9.207 16.297C9 16.094 9 15.768 9 15.115V12M12.882 12C14.052 12 15 10.993 15 9.75C15 8.507 14.052 7.5 12.882 7.5H10.412C9.746 7.5 9.414 7.5 9.207 7.703C9 7.906 9 8.232 9 8.885V12M12.882 12H9" stroke="white" stroke-width="1.5" stroke-linecap="round" stroke-linejoin="round"/>
</svg>
