<svg width="83" height="32" viewBox="0 0 83 32" fill="none" xmlns="http://www.w3.org/2000/svg">
<g opacity="0.3" clip-path="url(#clip0_4_80)">
<path d="M0 0.446655H5.94025V6.41655H0V0.446655Z" fill="#ADADAD"/>
<path d="M5.79252 31.5514V10.03H0.148193V31.5302H5.7926L5.79252 31.5514ZM43.1677 31.7639V26.495C42.3432 26.495 41.6456 26.4526 41.1382 26.3676C40.5463 26.2827 40.1024 26.0701 39.8064 25.7727C39.5104 25.4753 39.3202 25.0503 39.2145 24.4767C39.13 23.9456 39.0877 23.2446 39.0877 22.3948V14.8951H43.1677V10.03H39.0876V1.65935H33.4432V22.4585C33.4432 24.2218 33.5913 25.709 33.8872 26.8987C34.1832 28.0672 34.6906 29.0233 35.3881 29.7456C36.0857 30.4679 37.0159 30.9778 38.1363 31.2965C39.2778 31.6152 40.7154 31.7639 42.4277 31.7639H43.1677ZM75.4693 31.5514V0.00219727H69.8249V31.5514H75.4693ZM28.0105 12.1545C26.4462 10.4549 24.2476 9.60507 21.4572 9.60507C20.1043 9.60507 18.857 9.88128 17.7577 10.4336C16.6374 10.986 15.7072 11.7508 14.9462 12.728L14.6502 13.1317V10.03H9.09045V31.5302H14.6924V20.079V20.4827C14.7559 18.4644 15.2421 16.9772 16.1722 16.0211C17.1659 15.0014 18.3707 14.4915 19.7449 14.4915C21.3727 14.4915 22.6199 15.0014 23.4444 15.9787C24.2476 16.956 24.6704 18.3369 24.6704 20.1002V31.5302H30.357V19.3354C30.3782 16.2761 29.5749 13.8541 28.0105 12.1545ZM66.9075 20.7588C66.9075 19.2079 66.6328 17.7633 66.1043 16.4036C65.5546 15.065 64.7935 13.8753 63.8423 12.8555C62.8699 11.8358 61.7072 11.0498 60.3543 10.4762C59.0013 9.90248 57.5004 9.62627 55.8726 9.62627C54.3294 9.62627 52.8707 9.92375 51.5178 10.4974C50.1649 11.0922 48.981 11.8783 47.9874 12.8768C46.9939 13.8753 46.1906 15.0651 45.6198 16.4249C45.0279 17.7845 44.753 19.2504 44.753 20.8013C44.753 22.3523 45.028 23.8182 45.5775 25.1778C46.1271 26.5375 46.9094 27.7273 47.8817 28.7259C48.8542 29.7243 50.0592 30.5316 51.4543 31.1053C52.8496 31.7001 54.3928 31.9976 56.0418 31.9976C60.8193 31.9976 63.7788 29.8093 65.5546 27.7698L61.4958 24.6679C60.6502 25.6877 58.6208 27.0687 56.084 27.0687C54.4985 27.0687 53.1879 26.7075 52.1942 25.9639C51.2007 25.2416 50.5242 24.2218 50.1648 22.9684L50.1014 22.7771H66.9075V20.7588ZM50.1437 18.783C50.1437 17.2108 51.9406 14.4702 55.8092 14.449C59.6777 14.449 61.4958 17.1896 61.4958 18.7618L50.1437 18.783ZM81.8958 28.832C81.7901 28.5771 81.6422 28.3646 81.4519 28.1735C81.2616 27.9822 81.0502 27.8335 80.7966 27.7273C80.5429 27.6211 80.2681 27.5574 79.9932 27.5574C79.6973 27.5574 79.4436 27.6211 79.19 27.7273C78.9362 27.8335 78.7248 27.9822 78.5346 28.1735C78.3444 28.3646 78.1963 28.5771 78.0906 28.832C77.9849 29.0869 77.9216 29.3632 77.9216 29.6394C77.9216 29.9368 77.9849 30.1917 78.0906 30.4467C78.1963 30.7015 78.3444 30.9141 78.5346 31.1053C78.7248 31.2965 78.9362 31.4452 79.19 31.5514C79.4436 31.6577 79.7185 31.7213 79.9932 31.7213C80.2892 31.7213 80.5429 31.6577 80.7966 31.5514C81.0502 31.4452 81.2616 31.2965 81.4519 31.1053C81.6422 30.9141 81.7901 30.7016 81.8959 30.4467C82.0017 30.1918 82.0649 29.9156 82.0649 29.6393C82.0649 29.363 82.0015 29.0869 81.8959 28.832H81.8958ZM81.5576 30.3192C81.4731 30.5316 81.3462 30.7228 81.1982 30.8716C81.0502 31.0203 80.86 31.1477 80.6486 31.2328C80.4372 31.3177 80.2258 31.3602 79.9721 31.3602C79.7396 31.3602 79.507 31.3177 79.2957 31.2328C79.0844 31.1478 78.894 31.0203 78.746 30.8715C78.598 30.7228 78.4712 30.5316 78.3866 30.3192C78.302 30.1067 78.2598 29.8943 78.2598 29.6394C78.2598 29.4056 78.302 29.172 78.3867 28.9595C78.4712 28.7471 78.598 28.5558 78.746 28.4071C78.894 28.2584 79.0843 28.1309 79.2957 28.0459C79.507 27.9609 79.7184 27.9185 79.9721 27.9185C80.2046 27.9185 80.4372 27.961 80.6486 28.046C80.86 28.1309 81.0502 28.2584 81.1982 28.4072C81.3462 28.5558 81.4731 28.747 81.5576 28.9595C81.6422 29.1721 81.6844 29.3844 81.6844 29.6394C81.6844 29.8943 81.6422 30.1067 81.5576 30.3192ZM80.3738 29.8305C80.5428 29.8093 80.6697 29.7456 80.7754 29.6394C80.8811 29.5331 80.9445 29.3844 80.9445 29.172C80.9445 28.9382 80.8811 28.7683 80.7331 28.6408C80.6063 28.5133 80.3738 28.4496 80.0989 28.4496H79.1688V30.8503H79.6128V29.873H79.9298L80.5217 30.8503H80.9868L80.3738 29.8305ZM80.1412 29.4694H79.6126V28.7895H80.1411C80.2045 28.7895 80.268 28.8107 80.3314 28.832C80.3949 28.8533 80.4371 28.8958 80.4582 28.9382C80.5005 28.9807 80.5005 29.0445 80.5005 29.1294C80.5005 29.2144 80.4794 29.2782 80.4582 29.3207C80.4159 29.3632 80.3737 29.4056 80.3314 29.4269C80.268 29.4481 80.2045 29.4694 80.1411 29.4694H80.1412Z" fill="#ADADAD"/>
</g>
<defs>
<clipPath id="clip0_4_80">
<rect width="82.0647" height="32" fill="white"/>
</clipPath>
</defs>
</svg>
