<svg width="109" height="32" viewBox="0 0 109 32" fill="none" xmlns="http://www.w3.org/2000/svg">
<g opacity="0.3" clip-path="url(#clip0_4_91)">
<path d="M10.8264 31.6076C10.2508 31.6076 9.96234 31.3595 9.96234 30.8611V30.7046C9.96234 30.3916 10.2256 29.9196 10.751 29.2912C11.3015 28.6374 11.5767 27.9825 11.5767 27.3287V6.68098H9.58657C9.01095 6.68098 8.48559 6.9302 8.00929 7.42743C7.56375 7.91687 7.19637 8.47289 6.92027 9.07564C6.66896 9.65113 6.35781 10.1881 5.98204 10.6853C5.60627 11.1826 5.2305 11.4318 4.85472 11.4318H4.21687C3.51559 11.4318 3.20205 11.0513 3.27744 10.2928L4.02898 4.95332C4.10318 4.14306 4.52922 3.73733 5.30589 3.73733H24.6091C25.3594 3.73733 25.7854 4.14306 25.8848 4.95332L26.6746 10.3314C26.7237 10.6721 26.6614 10.9466 26.4855 11.1561C26.3108 11.3391 26.0607 11.4306 25.7352 11.4306H25.0961C24.7215 11.4306 24.3458 11.1826 23.97 10.6841C23.5942 10.1857 23.2687 9.65113 22.9935 9.07564C22.7182 8.47366 22.3425 7.92466 21.8674 7.42623C21.3911 6.9302 20.8657 6.68098 20.2901 6.68098H18.337V27.3287C18.337 27.9825 18.6003 28.6374 19.1257 29.2912C19.6762 29.9196 19.9514 30.3904 19.9514 30.7046V30.8611C19.9514 31.3595 19.6522 31.6076 19.0503 31.6076H10.8264ZM42.621 27.3287C42.6963 27.9572 42.834 28.4677 43.0338 28.8601C43.26 29.2261 43.4718 29.4621 43.6729 29.5669C43.8979 29.6716 44.0977 29.8016 44.2736 29.9594C44.4483 30.1159 44.5369 30.3121 44.5369 30.5481C44.5369 31.4113 43.1224 31.8435 40.2933 31.8435C39.1409 31.8435 38.2768 31.6991 37.7012 31.4101C37.1507 31.1236 36.8001 30.6396 36.6505 29.9594C35.6979 31.3198 34.1087 32 31.8804 32C29.7777 32 28.0628 31.4896 26.7344 30.4686C25.4336 29.4489 24.7838 27.9704 24.7838 26.0333C24.7838 24.1491 25.4336 22.6839 26.7344 21.6364C28.0377 20.5649 29.6401 20.028 31.5429 20.028C33.0196 20.028 34.2834 20.3542 35.3365 21.0092V20.8912C35.0852 18.3003 34.798 16.5474 34.4713 15.6299C34.1721 14.7149 33.5701 14.2574 32.669 14.2574C32.0934 14.2574 31.6302 14.5319 31.2796 15.0809C30.9257 15.6384 30.6596 16.2476 30.491 16.8869C30.3357 17.5517 30.0269 18.1703 29.5898 18.6928C29.1387 19.243 28.5379 19.5175 27.7876 19.5175C27.0109 19.5175 26.373 19.2815 25.8728 18.8108C25.3965 18.34 25.1583 17.7248 25.1583 16.9663C25.1583 15.4481 25.8848 14.3092 27.3364 13.5507C28.788 12.7657 30.5663 12.3733 32.669 12.3733C35.1725 12.3733 37.2381 13.092 38.8656 14.5319C40.5171 15.9454 41.4948 17.8681 41.7952 20.3025L42.621 27.3287ZM33.9459 29.9979C34.5215 29.9979 34.9847 29.7101 35.3353 29.1346C35.7111 28.5592 35.8978 27.9042 35.8978 27.1722L35.7482 25.3663C35.4981 23.1944 34.7226 22.1084 33.4205 22.1084C32.8449 22.1084 32.3818 22.3564 32.0311 22.8548C31.6805 23.3244 31.5046 23.9661 31.5046 24.7776C31.5046 26.2428 31.7176 27.4864 32.1436 28.5062C32.5936 29.5006 33.1956 29.9991 33.9459 29.9991V29.9979ZM46.1812 31.6076C45.6044 31.6076 45.3172 31.3595 45.3172 30.8611V30.7046C45.3172 30.3916 45.5541 29.9196 46.0304 29.2912C46.5307 28.6374 46.7808 27.9825 46.7808 27.3287V9.38987C46.7808 8.70964 46.5307 8.05469 46.0304 7.42743C45.5541 6.77248 45.3172 6.31498 45.3172 6.05252V5.89601C45.3172 5.60706 45.5924 5.30607 46.1429 4.99305L51.813 2.08791C52.3396 1.85314 52.7524 1.8399 53.0528 2.04939C53.3783 2.23239 53.5411 2.52013 53.5411 2.91262V27.3287C53.5411 27.9825 53.8163 28.6374 54.3668 29.2912C54.9173 29.9196 55.1925 30.3904 55.1925 30.7046V30.8611C55.1925 31.3595 54.8934 31.6076 54.2926 31.6076H46.1812ZM76.7767 28.3099C76.9023 28.4929 77.2781 28.8337 77.904 29.3309C78.555 29.8281 78.8805 30.2856 78.8805 30.7046V30.8611C78.8805 31.3595 78.5933 31.6076 78.0165 31.6076H70.1301C69.5544 31.6076 69.266 31.3463 69.266 30.8226V30.7046C69.266 30.3916 69.4539 30.0111 69.8297 29.5657C70.2055 29.0961 70.2808 28.6759 70.0547 28.3099L66.7505 23.1679L64.8717 24.9738V27.3287C64.8717 27.9825 65.1469 28.6374 65.6986 29.2912C66.2742 29.9196 66.5626 30.3904 66.5626 30.7046V30.8611C66.5626 31.3595 66.2622 31.6076 65.6615 31.6076H57.5489C56.9481 31.6076 56.6478 31.3595 56.6478 30.8611V30.7046C56.6478 30.3916 56.8991 29.9196 57.3993 29.2912C57.8995 28.6374 58.1508 27.9825 58.1508 27.3287V9.38987C58.1508 8.70964 57.8493 8.05469 57.2485 7.42743C56.6478 6.77248 56.3474 6.31498 56.3474 6.05252V5.89601C56.3474 5.60706 56.6226 5.30607 57.1731 4.99305L63.1843 2.08791C63.7096 1.87843 64.1225 1.86639 64.4229 2.04939C64.7233 2.23239 64.874 2.52013 64.874 2.91262V21.5582L69.9434 17.0049C70.2437 16.7954 70.3562 16.5341 70.282 16.2199C70.2362 15.9149 70.106 15.6291 69.9063 15.3952C69.7107 15.1042 69.5104 14.8164 69.3055 14.5319C69.1045 14.2189 69.0051 13.942 69.0051 13.7072V13.5507C69.0051 13.027 69.2924 12.7657 69.868 12.7657H75.8025C76.377 12.7657 76.6654 13.0138 76.6654 13.5122V13.6687C76.6654 13.9817 76.4906 14.3092 76.14 14.6499C75.7894 14.963 75.2891 15.3434 74.6381 15.7877C74.1035 16.1346 73.6009 16.5291 73.1362 16.9663L70.732 19.2815L76.7767 28.3099ZM84.3495 10.4493C83.0726 10.4493 82.0339 10.0833 81.2321 9.35014C80.4303 8.59165 80.0306 7.64896 80.0306 6.52447C80.0306 5.39878 80.4315 4.46933 81.2321 3.73733C82.0339 2.97884 83.0726 2.59839 84.3495 2.59839C85.6013 2.59839 86.6281 2.97763 87.4287 3.73733C88.2305 4.46933 88.6302 5.39878 88.6302 6.52447C88.6302 7.64896 88.2305 8.59165 87.4287 9.35014C86.6269 10.0833 85.6013 10.4493 84.3495 10.4493ZM80.3309 31.6076C79.7302 31.6076 79.4298 31.3595 79.4298 30.8611V30.7046C79.4298 30.3916 79.6811 29.9064 80.1814 29.2526C80.6816 28.5989 80.9317 27.9439 80.9317 27.2902V19.8317C80.9317 19.1515 80.6816 18.4965 80.1814 17.8693C79.6799 17.2143 79.4298 16.7689 79.4298 16.5329V16.3764C79.4298 16.0634 79.717 15.7624 80.2938 15.4734L85.9639 12.5695C86.4905 12.3335 86.9034 12.307 87.2037 12.4912C87.5041 12.6742 87.6549 12.9752 87.6549 13.3942V27.2902C87.6549 27.9439 87.9301 28.5977 88.4806 29.2526C89.0563 29.9064 89.3447 30.3904 89.3447 30.7046V30.8611C89.3447 31.3583 89.0311 31.6076 88.4052 31.6076H80.3309ZM98.7533 32C96.8505 32 95.3498 31.3716 94.2477 30.1159C93.1706 28.8601 92.6321 27.0675 92.6321 24.7378V15.4349H91.2056C90.9709 15.4404 90.7429 15.3561 90.5677 15.1989C90.4156 15.0109 90.3353 14.7743 90.3415 14.5319V13.6687C90.3415 13.0667 90.63 12.7657 91.2056 12.7657H91.9188C93.0713 12.7657 94.061 12.4118 94.8867 11.7063C95.7124 10.9719 96.251 10.0051 96.5011 8.80114C96.6267 8.12091 96.9642 7.78019 97.5147 7.78019H98.3787C99.0549 7.78019 99.3924 8.12091 99.3924 8.80114V12.7657H103.261C103.511 12.7657 103.711 12.8572 103.862 13.0402C104.037 13.1968 104.125 13.4062 104.125 13.6687V14.5319C104.128 14.6551 104.106 14.7776 104.061 14.8921C104.015 15.0066 103.948 15.1109 103.862 15.1989C103.784 15.2783 103.69 15.3402 103.587 15.3809C103.483 15.4215 103.372 15.4399 103.261 15.4349H99.3924V24.8558C99.3924 25.5096 99.5551 26.0333 99.8806 26.4258C100.206 26.793 100.607 26.976 101.082 26.976C102.159 26.976 102.985 26.492 103.562 25.5228C103.736 25.288 103.936 25.1568 104.163 25.1303C104.387 25.0785 104.575 25.1183 104.725 25.2483C104.901 25.3795 104.988 25.5613 104.988 25.7985C104.988 27.4467 104.426 28.8987 103.298 30.1556C102.197 31.3848 100.682 32 98.7533 32Z" fill="#ADADAD"/>
</g>
<defs>
<clipPath id="clip0_4_91">
<rect width="108.19" height="32" fill="white"/>
</clipPath>
</defs>
</svg>
